<svg width="40" height="30" viewBox="0 0 40 30" fill="none" xmlns="http://www.w3.org/2000/svg">
<path d="M35 0H5C3.67392 0 2.40214 0.549684 1.46446 1.52813C0.52678 2.50659 0 3.83365 0 5.21739V24.7826C0 26.1663 0.52678 27.4934 1.46446 28.4719C2.40214 29.4503 3.67392 30 5 30H35C36.3261 30 37.5979 29.4503 38.5355 28.4719C39.4732 27.4934 40 26.1663 40 24.7826V5.21739C40 3.83365 39.4732 2.50659 38.5355 1.52813C37.5979 0.549684 36.3261 0 35 0ZM34.5375 8.83042L20.7875 20.5696C20.5648 20.7581 20.2868 20.861 20 20.861C19.7132 20.861 19.4352 20.7581 19.2125 20.5696L5.4625 8.83042C5.31673 8.72977 5.1928 8.59832 5.09873 8.44459C5.00466 8.29085 4.94254 8.11825 4.91637 7.9379C4.89021 7.75756 4.90059 7.57348 4.94683 7.39758C4.99308 7.22168 5.07416 7.05786 5.18485 6.91669C5.29554 6.77552 5.43337 6.66015 5.58945 6.57802C5.74552 6.49589 5.91638 6.44885 6.09097 6.4399C6.26555 6.43095 6.44 6.46031 6.60304 6.52608C6.76608 6.59185 6.91408 6.69258 7.0375 6.82175L20 17.8826L32.9625 6.82175C33.2207 6.64344 33.5332 6.57149 33.8394 6.61986C34.1456 6.66823 34.4236 6.83347 34.6197 7.08355C34.8158 7.33364 34.916 7.65075 34.9008 7.97349C34.8856 8.29623 34.7561 8.60159 34.5375 8.83042Z" fill="#2C2C2C"/>
</svg>
